<svg width="800" height="200" viewBox="0 0 800 200" fill="none" xmlns="http://www.w3.org/2000/svg">
  <defs>
    <linearGradient id="bgGradient" x1="17.813" y1="15" x2="122.813" y2="125" gradientUnits="userSpaceOnUse">
      <stop offset="0" stop-color="#2563EB"/>
      <stop offset="1" stop-color="#1E3A8A"/>
    </linearGradient>
    <radialGradient id="vignette" cx="0" cy="0" r="1" gradientUnits="userSpaceOnUse" gradientTransform="translate(52.5 42) rotate(47.4) scale(128.525)">
      <stop offset="0" stop-color="#FFFFFF" stop-opacity="0.12"/>
      <stop offset="0.48" stop-color="#FFFFFF" stop-opacity="0.03"/>
      <stop offset="1" stop-color="#020617" stop-opacity="0.18"/>
    </radialGradient>
    <filter id="iconShadow" x="25" y="20" width="75" height="88" filterUnits="userSpaceOnUse" color-interpolation-filters="sRGB">
      <feOffset dy="2.5"/>
      <feGaussianBlur stdDeviation="3.5"/>
      <feColorMatrix type="matrix" values="0 0 0 0 0.0588235 0 0 0 0 0.0901961 0 0 0 0 0.172549 0 0 0 0.16 0"/>
      <feBlend in2="SourceGraphic" mode="normal"/>
    </filter>
    <clipPath id="iconClip">
      <rect x="20" y="40" width="120" height="120" rx="26"/>
    </clipPath>
  </defs>

  <rect width="800" height="200" fill="white"/>

  <g clip-path="url(#iconClip)">
    <rect x="20" y="40" width="120" height="120" rx="26" fill="url(#bgGradient)"/>
    <rect x="20" y="40" width="120" height="120" rx="26" fill="url(#vignette)"/>
    <path d="M20 115C36 104 51 98 69 100C87 102 100 94 119 80C131 71 136 67 140 64V160H20V115Z" fill="#0F172A" fill-opacity="0.08"/>
    <path d="M25 45H135V83C133 76 130 71 126 67C117 57 102 52 80 52C63 52 50 48 41 43C36 40 30 38 25 37V45Z" fill="#FFFFFF" fill-opacity="0.06"/>
  </g>

  <g filter="url(#iconShadow)">
    <path d="M61.5 63.5C61.5 61.566 63.066 60 65 60H89.6836C90.6126 60 91.5036 60.369 92.1604 61.0256L104.974 73.8396C105.631 74.4964 106 75.3874 106 76.3164V121C106 122.934 104.434 124.5 102.5 124.5H65C63.066 124.5 61.5 122.934 61.5 121V63.5Z" fill="white"/>
    <path d="M89.5 60V72.5C89.5 74.433 91.067 76 93 76H105.5L89.5 60Z" fill="white" fill-opacity="0.88"/>
    <path d="M86.5557 75.2515L74.4288 93.6776H83.614L76.9224 108.193L92.2989 87.4885H83.0198L86.5557 75.2515Z" fill="white"/>
    <rect x="71" y="112" width="19" height="3.5" rx="1.75" fill="white" fill-opacity="0.42"/>
    <rect x="71" y="118" width="15" height="3.5" rx="1.75" fill="white" fill-opacity="0.3"/>
  </g>

  <text x="175" y="104" fill="#0F172A" font-family="system-ui, -apple-system, 'Inter', sans-serif" font-size="52" font-weight="800" letter-spacing="-1">Permit<tspan fill="#2563EB">Assist</tspan></text>
  <text x="177" y="136" fill="#64748B" font-family="system-ui, -apple-system, 'Inter', sans-serif" font-size="16" font-weight="500" letter-spacing="1">INSTANT PERMIT INTELLIGENCE</text>
</svg>
